<?xml version="1.0" encoding="UTF-8"?>
<svg xmlns="http://www.w3.org/2000/svg" viewBox="0 0 1024 1024" role="img" aria-labelledby="title desc">
  <title id="title">GitCafe logo</title>
  <desc id="desc">Cyan and white GitCafe logo mark.</desc>
  <defs>
    <filter id="cyanGlow" x="-20%" y="-20%" width="140%" height="140%">
      <feGaussianBlur stdDeviation="7" result="blur"/>
      <feMerge>
        <feMergeNode in="blur"/>
        <feMergeNode in="SourceGraphic"/>
      </feMerge>
    </filter>
    <style>
      .outer{fill:none;stroke:#03bfa8;stroke-width:74;stroke-linecap:square;stroke-linejoin:round;filter:url(#cyanGlow)}
      .inner{fill:none;stroke:#effff8;stroke-width:28;stroke-linecap:square;stroke-linejoin:round}
      .boxOuter{fill:#02080e;stroke:#03bfa8;stroke-width:62;stroke-linejoin:round;filter:url(#cyanGlow)}
      .boxInner{fill:none;stroke:#effff8;stroke-width:24;stroke-linejoin:round}
    </style>
  </defs>
  <rect width="1024" height="1024" fill="#02080e"/>
  <g aria-label="GitCafe logo mark">
    <g>
      <path class="outer" d="M518 106v128h-60v68h60v128h70v-82h60v-68h-60v-88h60v-68h-60v-18z"/>
      <path class="inner" d="M518 106v128h-60v68h60v128h70v-82h60v-68h-60v-88h60v-68h-60v-18z"/>
      <path class="outer" d="M676 106v128h-60v68h60v128h70v-82h60v-68h-60v-88h60v-68h-60v-18z"/>
      <path class="inner" d="M676 106v128h-60v68h60v128h70v-82h60v-68h-60v-88h60v-68h-60v-18z"/>
    </g>
    <path class="outer" d="M401 339h388v438h-72v-368H401v82h-70V339z"/>
    <path class="inner" d="M401 339h388v438h-72v-368H401v82h-70V339z"/>
    <path class="outer" d="M717 777v91H515v-50h202"/>
    <path class="inner" d="M717 777v91H515v-50h202"/>
    <path class="outer" d="M286 515h143v47H286v182h124v-72h-58v-56h118v128H222V563h64z"/>
    <path class="inner" d="M286 515h143v47H286v182h124v-72h-58v-56h118v128H222V563h64z"/>
    <path class="outer" d="M520 515h44v229h-44z"/>
    <path class="inner" d="M520 515h44v229h-44z"/>
    <path class="outer" d="M520 616h44"/>
    <path class="inner" d="M520 616h44"/>
    <path class="outer" d="M634 515v229h72v-88h55v-58h-55v-83z"/>
    <path class="inner" d="M634 515v229h72v-88h55v-58h-55v-83z"/>
  </g>
</svg>
