<?xml version="1.0" encoding="UTF-8"?>
<svg xmlns="http://www.w3.org/2000/svg" viewBox="0 0 1024 1024" role="img" aria-labelledby="title desc">
  <title id="title">Hardcore gaming quest icon</title>
  <desc id="desc">Transparent green cyan Tabler gamepad icon.</desc>
  <defs>
    <linearGradient id="cyanGreen" x1="12%" x2="88%" y1="10%" y2="90%">
      <stop offset="0" stop-color="#69dfff"/>
      <stop offset=".5" stop-color="#00e0b8"/>
      <stop offset="1" stop-color="#d8ffee"/>
    </linearGradient>
    <filter id="halo" x="-70%" y="-70%" width="240%" height="240%">
      <feGaussianBlur stdDeviation="18" result="blur"/>
      <feColorMatrix in="blur" type="matrix" values="0 0 0 0 0.00 0 0 0 0 1.00 0 0 0 0 0.82 0 0 0 .82 0" result="cyanBlur"/>
      <feMerge>
        <feMergeNode in="cyanBlur"/>
        <feMergeNode in="SourceGraphic"/>
      </feMerge>
    </filter>
    <filter id="tightGlow" x="-45%" y="-45%" width="190%" height="190%">
      <feGaussianBlur stdDeviation="5" result="soft"/>
      <feMerge>
        <feMergeNode in="soft"/>
        <feMergeNode in="SourceGraphic"/>
      </feMerge>
    </filter>
  </defs>
  <g transform="translate(68 68) scale(37)" fill="none" stroke-linecap="round" stroke-linejoin="round">
    <g stroke="#00e0b8" stroke-opacity=".34" stroke-width="4.6" filter="url(#halo)">
      <path d="M12 5h3.5a5 5 0 0 1 0 10h-5.5l-4.015 4.227a2.3 2.3 0 0 1 -3.923 -2.035l1.634 -8.173a5 5 0 0 1 4.904 -4.019h3.4"/>
      <path d="M14 15l4.07 4.284a2.3 2.3 0 0 0 3.925 -2.023l-1.6 -8.232"/>
      <path d="M8 9v2"/>
      <path d="M7 10h2"/>
      <path d="M14 10h2"/>
    </g>
    <g stroke="#d8ffee" stroke-opacity=".72" stroke-width="2.7" filter="url(#tightGlow)">
      <path d="M12 5h3.5a5 5 0 0 1 0 10h-5.5l-4.015 4.227a2.3 2.3 0 0 1 -3.923 -2.035l1.634 -8.173a5 5 0 0 1 4.904 -4.019h3.4"/>
      <path d="M14 15l4.07 4.284a2.3 2.3 0 0 0 3.925 -2.023l-1.6 -8.232"/>
      <path d="M8 9v2"/>
      <path d="M7 10h2"/>
      <path d="M14 10h2"/>
    </g>
    <g stroke="url(#cyanGreen)" stroke-width="2.05">
      <path d="M12 5h3.5a5 5 0 0 1 0 10h-5.5l-4.015 4.227a2.3 2.3 0 0 1 -3.923 -2.035l1.634 -8.173a5 5 0 0 1 4.904 -4.019h3.4"/>
      <path d="M14 15l4.07 4.284a2.3 2.3 0 0 0 3.925 -2.023l-1.6 -8.232"/>
      <path d="M8 9v2"/>
      <path d="M7 10h2"/>
      <path d="M14 10h2"/>
    </g>
  </g>
</svg>
